<svg width="151" height="42" viewBox="0 0 151 42" fill="none" xmlns="http://www.w3.org/2000/svg">
<rect x="0.5" y="0.5" width="150" height="41" rx="3.5" fill="#FFDBC0" fill-opacity="0.2" stroke="white" stroke-linejoin="round"/>
<path d="M52.834 20.5586V21.2324C52.834 22.3132 52.6875 23.2832 52.3945 24.1426C52.1016 25.002 51.6882 25.7344 51.1543 26.3398C50.6204 26.9388 49.9824 27.3978 49.2402 27.7168C48.5046 28.0358 47.6875 28.1953 46.7891 28.1953C45.8971 28.1953 45.0801 28.0358 44.3379 27.7168C43.6022 27.3978 42.9642 26.9388 42.4238 26.3398C41.8835 25.7344 41.4635 25.002 41.1641 24.1426C40.8711 23.2832 40.7246 22.3132 40.7246 21.2324V20.5586C40.7246 19.4714 40.8711 18.5013 41.1641 17.6484C41.457 16.7891 41.8704 16.0566 42.4043 15.4512C42.9447 14.8457 43.5827 14.3835 44.3184 14.0645C45.0605 13.7454 45.8776 13.5859 46.7695 13.5859C47.668 13.5859 48.485 13.7454 49.2207 14.0645C49.9629 14.3835 50.6009 14.8457 51.1348 15.4512C51.6751 16.0566 52.0918 16.7891 52.3848 17.6484C52.6842 18.5013 52.834 19.4714 52.834 20.5586ZM49.875 21.2324V20.5391C49.875 19.7839 49.8066 19.1198 49.6699 18.5469C49.5332 17.974 49.3314 17.4922 49.0645 17.1016C48.7975 16.7109 48.472 16.418 48.0879 16.2227C47.7038 16.0208 47.2643 15.9199 46.7695 15.9199C46.2747 15.9199 45.8353 16.0208 45.4512 16.2227C45.0736 16.418 44.7513 16.7109 44.4844 17.1016C44.224 17.4922 44.0254 17.974 43.8887 18.5469C43.752 19.1198 43.6836 19.7839 43.6836 20.5391V21.2324C43.6836 21.9811 43.752 22.6452 43.8887 23.2246C44.0254 23.7975 44.2272 24.2826 44.4941 24.6797C44.7611 25.0703 45.0866 25.3665 45.4707 25.5684C45.8548 25.7702 46.2943 25.8711 46.7891 25.8711C47.2839 25.8711 47.7233 25.7702 48.1074 25.5684C48.4915 25.3665 48.8138 25.0703 49.0742 24.6797C49.3346 24.2826 49.5332 23.7975 49.6699 23.2246C49.8066 22.6452 49.875 21.9811 49.875 21.2324ZM66.9844 21.7012V23.8887H61.6133V21.7012H66.9844ZM62.5508 17.4336V28H59.7383V17.4336H62.5508ZM68.8887 17.4336V28H66.0664V17.4336H68.8887ZM76.7793 25.6172V20.9102C76.7793 20.5716 76.724 20.2819 76.6133 20.041C76.5026 19.7936 76.3301 19.6016 76.0957 19.4648C75.8678 19.3281 75.5716 19.2598 75.207 19.2598C74.8945 19.2598 74.6243 19.3151 74.3965 19.4258C74.1686 19.5299 73.9928 19.6829 73.8691 19.8848C73.7454 20.0801 73.6836 20.3112 73.6836 20.5781H70.8711C70.8711 20.1289 70.9753 19.7025 71.1836 19.2988C71.3919 18.8952 71.6947 18.5404 72.0918 18.2344C72.4889 17.9219 72.9609 17.6777 73.5078 17.502C74.0612 17.3262 74.6797 17.2383 75.3633 17.2383C76.1836 17.2383 76.9128 17.375 77.5508 17.6484C78.1888 17.9219 78.6901 18.332 79.0547 18.8789C79.4258 19.4258 79.6113 20.1094 79.6113 20.9297V25.4512C79.6113 26.0306 79.6471 26.5059 79.7188 26.877C79.7904 27.2415 79.8945 27.5605 80.0312 27.834V28H77.1895C77.0527 27.7135 76.9486 27.3555 76.877 26.9258C76.8118 26.4896 76.7793 26.0534 76.7793 25.6172ZM77.1504 21.5645L77.1699 23.1562H75.5977C75.2266 23.1562 74.9043 23.1986 74.6309 23.2832C74.3574 23.3678 74.1328 23.4883 73.957 23.6445C73.7812 23.7943 73.651 23.9701 73.5664 24.1719C73.4883 24.3737 73.4492 24.5951 73.4492 24.8359C73.4492 25.0768 73.5046 25.2949 73.6152 25.4902C73.7259 25.679 73.8854 25.8288 74.0938 25.9395C74.3021 26.0436 74.5462 26.0957 74.8262 26.0957C75.2493 26.0957 75.6172 26.0111 75.9297 25.8418C76.2422 25.6725 76.4831 25.4642 76.6523 25.2168C76.8281 24.9694 76.9193 24.735 76.9258 24.5137L77.668 25.7051C77.5638 25.972 77.4206 26.2487 77.2383 26.5352C77.0625 26.8216 76.8379 27.0918 76.5645 27.3457C76.291 27.5931 75.9622 27.7982 75.5781 27.9609C75.194 28.1172 74.7383 28.1953 74.2109 28.1953C73.5404 28.1953 72.9316 28.0618 72.3848 27.7949C71.8444 27.5215 71.4147 27.1471 71.0957 26.6719C70.7832 26.1901 70.627 25.6432 70.627 25.0312C70.627 24.4779 70.7311 23.9863 70.9395 23.5566C71.1478 23.127 71.4538 22.7656 71.8574 22.4727C72.2676 22.1732 72.7786 21.9486 73.3906 21.7988C74.0026 21.6426 74.7122 21.5645 75.5195 21.5645H77.1504ZM86.1445 25.998C86.4896 25.998 86.7956 25.9329 87.0625 25.8027C87.3294 25.666 87.5378 25.4772 87.6875 25.2363C87.8438 24.9889 87.9251 24.6992 87.9316 24.3672H90.5781C90.5716 25.1094 90.373 25.7702 89.9824 26.3496C89.5918 26.9225 89.0677 27.375 88.4102 27.707C87.7526 28.0326 87.0169 28.1953 86.2031 28.1953C85.3828 28.1953 84.6667 28.0586 84.0547 27.7852C83.4492 27.5117 82.9447 27.1341 82.541 26.6523C82.1374 26.1641 81.8346 25.5977 81.6328 24.9531C81.431 24.3021 81.3301 23.6055 81.3301 22.8633V22.5801C81.3301 21.8314 81.431 21.1348 81.6328 20.4902C81.8346 19.8392 82.1374 19.2728 82.541 18.791C82.9447 18.3027 83.4492 17.9219 84.0547 17.6484C84.6602 17.375 85.3698 17.2383 86.1836 17.2383C87.0495 17.2383 87.8079 17.4043 88.459 17.7363C89.1165 18.0684 89.6309 18.5436 90.002 19.1621C90.3796 19.7741 90.5716 20.5 90.5781 21.3398H87.9316C87.9251 20.9883 87.8503 20.6693 87.707 20.3828C87.5703 20.0964 87.3685 19.8685 87.1016 19.6992C86.8411 19.5234 86.5189 19.4355 86.1348 19.4355C85.7246 19.4355 85.3893 19.5234 85.1289 19.6992C84.8685 19.8685 84.6667 20.1029 84.5234 20.4023C84.3802 20.6953 84.2793 21.0306 84.2207 21.4082C84.1686 21.7793 84.1426 22.1699 84.1426 22.5801V22.8633C84.1426 23.2734 84.1686 23.6673 84.2207 24.0449C84.2728 24.4225 84.3704 24.7578 84.5137 25.0508C84.6634 25.3438 84.8685 25.5749 85.1289 25.7441C85.3893 25.9134 85.7279 25.998 86.1445 25.998Z" fill="white"/>
<path d="M129 25.6667V19.8333M129 9.33333C122.583 9.33333 117.333 14.5833 117.333 21C117.333 27.4167 122.583 32.6667 129 32.6667C135.417 32.6667 140.667 27.4167 140.667 21C140.667 14.5833 135.417 9.33333 129 9.33333Z" stroke="white" stroke-width="1.5" stroke-linecap="round" stroke-linejoin="round"/>
<path d="M129.006 16.3333H128.995" stroke="white" stroke-width="2" stroke-linecap="round" stroke-linejoin="round"/>
</svg>
