<svg width="128" height="128" viewBox="0 0 128 128" fill="none" xmlns="http://www.w3.org/2000/svg">
<g clip-path="url(#clip0_251_129)">
<path d="M127.798 23.756L101.265 104.178C100.933 105.185 100.228 106.003 99.2784 106.481C98.7143 106.765 98.1049 106.909 97.4919 106.909C97.0734 106.909 96.6536 106.842 96.2454 106.707L89.6085 104.518C88.271 104.077 87.5446 102.635 87.9857 101.298C88.4268 99.9603 89.8702 99.2339 91.2057 99.675L96.7743 101.512L122.603 23.2251L72.0257 6.53837L64.8491 28.2922C64.4077 29.6297 62.9645 30.3558 61.6291 29.9147C60.2916 29.4736 59.5652 28.0319 60.0063 26.6944L67.5353 3.8725C68.2232 1.79109 70.4746 0.656468 72.5554 1.34319L125.269 18.7348C126.276 19.0662 127.094 19.7719 127.573 20.7216C128.051 21.6712 128.131 22.7489 127.798 23.756ZM75.5451 21.4613C75.8106 21.5488 76.0797 21.5904 76.3446 21.5904C77.4146 21.5904 78.4118 20.9111 78.7654 19.8388L79.5258 17.5344C79.9671 16.1972 79.2405 14.7555 77.9033 14.3141C76.5667 13.873 75.1238 14.5991 74.683 15.9366L73.9226 18.241C73.4815 19.5784 74.2079 21.0202 75.5451 21.4613ZM90.0354 88.2115L89.275 90.5159C88.8336 91.8531 89.5603 93.2951 90.8978 93.7362C91.1629 93.8237 91.4321 93.8654 91.697 93.8654C92.7673 93.8654 93.7642 93.186 94.1178 92.1137L94.8781 89.8094C95.3195 88.4722 94.5929 87.0302 93.2554 86.5891C91.9199 86.1485 90.4765 86.8738 90.0354 88.2115ZM72.0931 43.4004C72.828 41.1734 74.3867 39.3656 76.482 38.3095C78.5778 37.2533 80.9581 37.0765 83.1854 37.8114C85.9343 38.7183 87.4279 40.3268 88.2925 42.2264C90.1181 41.2141 92.2752 40.8102 95.0252 41.7176C99.6231 43.2349 102.131 48.2108 100.614 52.8094C98.3293 59.7338 89.8456 64.0077 81.6415 68.1408C81.2737 68.3261 80.8819 68.4139 80.4964 68.4139C79.564 68.4139 78.6657 67.9005 78.2175 67.011C74.0833 58.8071 69.8085 50.3234 72.0931 43.4004ZM81.6259 62.4342C88.1299 59.1176 94.3178 55.6172 95.7714 51.2121C96.4074 49.2837 95.3558 47.1966 93.4274 46.5603C91.8729 46.0473 90.8657 46.1934 88.6503 48.4225C87.9696 49.1075 86.9602 49.3494 86.0431 49.0466C85.1261 48.744 84.4583 47.9493 84.3189 46.9938C83.8645 43.8831 83.1418 43.1667 81.5879 42.6542C81.2091 42.5292 80.8196 42.4672 80.432 42.4672C79.8637 42.4672 79.2994 42.6003 78.7767 42.8635C77.8973 43.3063 77.2438 44.0644 76.9358 44.9979C75.4822 49.4024 78.3724 55.8982 81.6259 62.4342ZM62.1481 61.1362V86.0032C62.1481 87.4115 63.2895 88.5529 64.6978 88.5529C66.1061 88.5529 67.2475 87.4115 67.2475 86.0032V61.1362C67.2475 52.2031 65.6137 44.6985 62.392 38.8307C59.3981 33.3778 55.0245 29.4515 49.7381 27.4672L32.7255 19.7943C31.8252 19.3883 30.7722 19.5388 30.0217 20.1793C29.2712 20.8201 28.9576 21.8369 29.2174 22.7891L30.6353 27.9891C21.8743 31.2538 13.7905 38.1766 7.66528 47.7199C7.40153 48.1307 7.26129 48.6089 7.26129 49.097V64.8735C7.26129 66.2818 8.40271 67.4232 9.811 67.4232H19.6829C19.7682 67.4232 19.8532 67.4189 19.9376 67.4104C22.6377 67.1393 27.0318 65.7149 27.6692 59.41C28.5256 59.0757 29.4426 58.9023 30.3736 58.9023C34.4741 58.9023 37.8097 62.2379 37.8097 66.3379C37.8097 71.0517 34.9118 72.1792 28.8831 74.0901C21.3717 76.471 11.0844 79.7318 11.0844 96.7814V100.839C6.2958 100.851 2.40324 104.75 2.40324 109.541C2.40324 110.323 2.5092 111.099 2.71573 111.846C1.00317 113.468 6.63372e-08 115.733 6.63372e-08 118.155C-0.000283235 120.472 0.906847 122.656 2.55481 124.303C4.20192 125.95 6.38533 126.858 8.70188 126.858H41.3101C42.7184 126.858 43.8598 125.716 43.8598 124.308C43.8598 122.9 42.7184 121.758 41.3101 121.758H8.70188C7.74715 121.758 6.84456 121.382 6.1601 120.697C5.47593 120.013 5.09914 119.111 5.09942 118.155C5.09942 117.406 5.33343 116.692 5.74988 116.099H38.5992C40.0075 116.099 41.1489 114.957 41.1489 113.549C41.1489 112.141 40.0075 110.999 38.5992 110.999H7.81571C7.61089 110.542 7.50295 110.046 7.50295 109.542C7.50295 107.555 9.1189 105.939 11.1054 105.939L41.3101 105.939C42.7181 105.939 43.8598 104.798 43.8598 103.39C43.8598 101.982 42.7184 100.84 41.3101 100.84L16.1841 100.84V96.7822C16.1841 83.4657 23.1012 81.2732 30.4243 78.9518C36.2764 77.0968 42.9094 74.9944 42.9094 66.3384C42.9094 59.4267 37.2858 53.8035 30.3739 53.8035C28.0774 53.8035 25.83 54.4313 23.8744 55.6192C23.1128 56.0815 22.6482 56.9076 22.6482 57.7983C22.6482 61.2546 21.5133 62.0994 19.5478 62.324H12.3607V59.2355H13.4486C14.8569 59.2355 15.9983 58.0941 15.9983 56.6858C15.9983 55.2775 14.8569 54.1361 13.4486 54.1361H12.3607V49.8548C18.2511 40.9439 26.2674 34.4883 34.4463 32.0924C35.7798 31.7017 36.5549 30.3153 36.1892 28.9747L35.56 26.6669L47.526 32.0635C47.6241 32.1148 47.7252 32.1598 47.8295 32.1981C56.9294 35.5391 62.1481 46.0866 62.1481 61.1362ZM36.9697 41.3793C35.5614 41.3793 34.42 42.5207 34.42 43.929C34.42 45.3373 35.5614 46.4787 36.9697 46.4787H37.5397C38.948 46.4787 40.0894 45.3373 40.0894 43.929C40.0894 42.5207 38.948 41.3793 37.5397 41.3793H36.9697ZM83.6025 97.9786V121.459C83.6025 124.436 81.1802 126.857 78.203 126.857H54.7227C51.7458 126.857 49.3239 124.436 49.3239 121.459V97.9786C49.3239 95.0017 51.7458 92.5798 54.7227 92.5798H78.203C81.1802 92.5798 83.6025 95.0014 83.6025 97.9786ZM78.5031 97.9786C78.5031 97.8191 78.3628 97.6792 78.203 97.6792H54.7227C54.5632 97.6792 54.4233 97.8191 54.4233 97.9786V121.459C54.4233 121.618 54.5632 121.758 54.7227 121.758H78.203C78.3625 121.758 78.5031 121.618 78.5031 121.459V97.9786ZM71.1976 102.563H70.6363C69.2281 102.563 68.0866 103.704 68.0866 105.112C68.0866 106.521 69.2281 107.662 70.6363 107.662H71.1976C72.6059 107.662 73.7473 106.521 73.7473 105.112C73.7473 103.704 72.6059 102.563 71.1976 102.563ZM71.1973 111.775H70.6361C69.2278 111.775 68.0863 112.916 68.0863 114.324C68.0863 115.733 69.2278 116.874 70.6361 116.874H71.1973C72.6056 116.874 73.747 115.733 73.747 114.324C73.747 112.916 72.6053 111.775 71.1973 111.775ZM62.2906 102.563H61.7294C60.3211 102.563 59.1796 103.704 59.1796 105.112C59.1796 106.521 60.3211 107.662 61.7294 107.662H62.2906C63.6989 107.662 64.8403 106.521 64.8403 105.112C64.8403 103.704 63.6989 102.563 62.2906 102.563ZM62.2903 111.775H61.7291C60.3208 111.775 59.1794 112.916 59.1794 114.324C59.1794 115.733 60.3208 116.874 61.7291 116.874H62.2903C63.6986 116.874 64.84 115.733 64.84 114.324C64.84 112.916 63.6986 111.775 62.2903 111.775Z" fill="white"/>
</g>
<defs>
<clipPath id="clip0_251_129">
<rect width="128" height="128" fill="white"/>
</clipPath>
</defs>
</svg>
