<svg width="66" height="63" viewBox="0 0 66 63" fill="none" xmlns="http://www.w3.org/2000/svg">
<path d="M6.71171 6.2059L6.71171 6.20591L6.71394 6.20376C8.44657 4.52836 10.1955 3.50085 12.2628 2.72227C14.2663 1.97444 16.5481 1.46817 19.9545 1.30705C23.3805 1.1677 24.4685 1.12695 33.2463 1.12695C42.0259 1.12695 43.1103 1.15803 46.5373 1.30702C49.9346 1.46812 52.2267 1.97455 54.2304 2.72253L54.2321 2.72314C56.3056 3.48896 58.0443 4.52488 59.7784 6.20357L59.7806 6.20571C61.5226 7.87124 62.5889 9.55022 63.3964 11.5323C64.1607 13.4436 64.6978 15.6539 64.865 18.9126C65.0099 22.2054 65.0522 23.2509 65.0522 31.6904C65.0522 40.1319 65.0199 41.1737 64.8651 44.4673C64.6979 47.7271 64.1626 49.9265 63.3956 51.8504C62.6014 53.8384 61.5265 55.5077 59.7808 57.1749L59.7786 57.177C58.0464 58.852 56.2979 59.8794 54.2312 60.658C52.2251 61.3953 49.9321 61.9127 46.5376 62.0737C43.112 62.2131 42.0237 62.2538 33.2463 62.2538C24.4669 62.2538 23.3824 62.2227 19.9555 62.0738C16.5597 61.9128 14.2665 61.397 12.2605 60.6576C10.1962 59.8915 8.44755 58.8553 6.71415 57.1772L6.71191 57.1751C4.96985 55.5094 3.90355 53.8303 3.09603 51.848C2.32037 49.9268 1.79486 47.7288 1.62755 44.4683C1.48268 41.1754 1.44031 40.13 1.44031 31.6904C1.44031 23.2487 1.47263 22.2071 1.62751 18.9132C1.79478 15.6425 2.32032 13.4539 3.09618 11.5324L3.09656 11.5314C3.89112 9.5518 4.9665 7.87269 6.71171 6.2059ZM46.3321 5.90015L46.3301 5.90007C42.9319 5.7607 41.8866 5.71956 33.3983 5.71907L33.3914 5.7144L33.265 5.62975H33.113C24.6883 5.62975 23.5136 5.67042 20.2751 5.78253C20.1929 5.78538 20.1093 5.78827 20.0243 5.79121L20.0243 5.79117L20.0176 5.79149C16.8123 5.9453 15.0693 6.45993 13.8845 6.9028C12.2779 7.47652 11.1651 8.21594 9.99597 9.34013L9.99565 9.34044C8.81851 10.4743 8.04787 11.5428 7.46058 13.0965C6.98545 14.2367 6.45926 15.9582 6.28918 19.0378L6.28908 19.0378L6.28872 19.048C6.28178 19.2469 6.27505 19.4376 6.26854 19.6221C6.16702 22.5003 6.11879 23.8674 6.11879 31.6457C6.11879 39.4425 6.1672 40.7985 6.26913 43.654C6.27546 43.8312 6.28199 44.0142 6.28873 44.2049L6.28863 44.2049L6.28918 44.2148C6.45931 47.2953 6.98575 49.0211 7.46137 50.1581C8.04719 51.6759 8.81334 52.7753 9.99597 53.9125C11.1741 55.0453 12.2842 55.7364 13.8772 56.3471L13.881 56.3485C15.0667 56.792 16.8518 57.307 20.046 57.4727L20.0498 57.4729C23.4913 57.6248 24.5073 57.6656 33.1574 57.6656C41.8077 57.6656 42.8249 57.6248 46.2613 57.4846L46.2634 57.4845C49.4697 57.3405 51.2589 56.8257 52.4335 56.3789C53.9974 55.7915 55.1376 55.0886 56.325 53.959L56.3251 53.959L56.3301 53.9541C57.5061 52.803 58.2258 51.7274 58.8627 50.2097L58.8627 50.2097L58.8651 50.2037C59.3279 49.06 59.865 47.3595 60.0378 44.2812L60.038 44.2772C60.196 40.9881 60.2385 39.9868 60.2385 31.6923C60.2385 23.3977 60.196 22.3973 60.0502 19.1093L60.0501 19.1071C59.8999 16.0276 59.3626 14.3257 58.8974 13.1808C58.2837 11.6581 57.5494 10.5679 56.3734 9.43722L56.3715 9.43539C55.1759 8.29795 54.0581 7.59381 52.4785 7.00516C51.2923 6.55952 49.5281 6.04424 46.3321 5.90015ZM17.1611 31.6943C17.1611 23.1809 24.334 16.247 33.2463 16.247C42.1489 16.247 49.3314 23.1716 49.3314 31.6943C49.3314 40.2076 42.1586 47.1415 33.2463 47.1415C24.3437 47.1415 17.1611 40.2169 17.1611 31.6943ZM21.9769 31.6943C21.9769 37.7129 27.0357 42.5494 33.2463 42.5494C39.4569 42.5494 44.5156 37.7129 44.5156 31.6943C44.5156 25.6757 39.4569 20.8391 33.2463 20.8391C27.0357 20.8391 21.9769 25.6757 21.9769 31.6943ZM53.877 15.1101C53.877 16.8782 52.3743 18.3402 50.4938 18.3402C48.6048 18.3402 47.1145 16.878 47.1145 15.1101C47.1145 13.3535 48.6154 11.8879 50.4938 11.8879C52.3728 11.8879 53.877 13.3542 53.877 15.1101Z" fill="#DB9C6F" stroke="#DB9C6F"/>
</svg>
