<svg width="151" height="42" viewBox="0 0 151 42" fill="none" xmlns="http://www.w3.org/2000/svg">
<rect x="0.5" y="0.5" width="150" height="41" rx="3.5" fill="#FFDBC0" fill-opacity="0.2" stroke="white" stroke-linejoin="round"/>
<path d="M32.9902 13.7812V28H30.0605V13.7812H32.9902ZM41.3691 13.7812L35.9199 22.1309H32.3359L31.9648 19.5234H34.3574L37.8145 13.7812H41.3691ZM38.3516 28L34.3672 21.6426L36.3984 19.5527L41.8281 28H38.3516ZM48.5078 25.6172V20.9102C48.5078 20.5716 48.4525 20.2819 48.3418 20.041C48.2311 19.7936 48.0586 19.6016 47.8242 19.4648C47.5964 19.3281 47.3001 19.2598 46.9355 19.2598C46.623 19.2598 46.3529 19.3151 46.125 19.4258C45.8971 19.5299 45.7214 19.6829 45.5977 19.8848C45.474 20.0801 45.4121 20.3112 45.4121 20.5781H42.5996C42.5996 20.1289 42.7038 19.7025 42.9121 19.2988C43.1204 18.8952 43.4232 18.5404 43.8203 18.2344C44.2174 17.9219 44.6895 17.6777 45.2363 17.502C45.7897 17.3262 46.4082 17.2383 47.0918 17.2383C47.9121 17.2383 48.6413 17.375 49.2793 17.6484C49.9173 17.9219 50.4186 18.332 50.7832 18.8789C51.1543 19.4258 51.3398 20.1094 51.3398 20.9297V25.4512C51.3398 26.0306 51.3757 26.5059 51.4473 26.877C51.5189 27.2415 51.623 27.5605 51.7598 27.834V28H48.918C48.7812 27.7135 48.6771 27.3555 48.6055 26.9258C48.5404 26.4896 48.5078 26.0534 48.5078 25.6172ZM48.8789 21.5645L48.8984 23.1562H47.3262C46.9551 23.1562 46.6328 23.1986 46.3594 23.2832C46.0859 23.3678 45.8613 23.4883 45.6855 23.6445C45.5098 23.7943 45.3796 23.9701 45.2949 24.1719C45.2168 24.3737 45.1777 24.5951 45.1777 24.8359C45.1777 25.0768 45.2331 25.2949 45.3438 25.4902C45.4544 25.679 45.6139 25.8288 45.8223 25.9395C46.0306 26.0436 46.2747 26.0957 46.5547 26.0957C46.9779 26.0957 47.3457 26.0111 47.6582 25.8418C47.9707 25.6725 48.2116 25.4642 48.3809 25.2168C48.5566 24.9694 48.6478 24.735 48.6543 24.5137L49.3965 25.7051C49.2923 25.972 49.1491 26.2487 48.9668 26.5352C48.791 26.8216 48.5664 27.0918 48.293 27.3457C48.0195 27.5931 47.6908 27.7982 47.3066 27.9609C46.9225 28.1172 46.4668 28.1953 45.9395 28.1953C45.2689 28.1953 44.6602 28.0618 44.1133 27.7949C43.5729 27.5215 43.1432 27.1471 42.8242 26.6719C42.5117 26.1901 42.3555 25.6432 42.3555 25.0312C42.3555 24.4779 42.4596 23.9863 42.668 23.5566C42.8763 23.127 43.1823 22.7656 43.5859 22.4727C43.9961 22.1732 44.5072 21.9486 45.1191 21.7988C45.7311 21.6426 46.4408 21.5645 47.248 21.5645H48.8789ZM59.9824 12.7852H62.2578C62.2578 13.3125 62.1927 13.765 62.0625 14.1426C61.9323 14.5137 61.724 14.8327 61.4375 15.0996C61.151 15.36 60.7669 15.5814 60.2852 15.7637C59.8034 15.946 59.2077 16.1022 58.498 16.2324C57.9512 16.3431 57.4759 16.5254 57.0723 16.7793C56.6751 17.0332 56.3464 17.3815 56.0859 17.8242C55.832 18.2604 55.6497 18.8138 55.5391 19.4844C55.4284 20.1484 55.3893 20.9492 55.4219 21.8867V22.3555L53.2344 22.6582V22.1895C53.2409 20.9134 53.3548 19.8034 53.5762 18.8594C53.804 17.9154 54.1263 17.1211 54.543 16.4766C54.9596 15.8255 55.4609 15.3079 56.0469 14.9238C56.6328 14.5332 57.2839 14.2598 58 14.1035C58.4818 13.9993 58.8659 13.8984 59.1523 13.8008C59.4453 13.6966 59.6569 13.5664 59.7871 13.4102C59.9173 13.2539 59.9824 13.0456 59.9824 12.7852ZM58.752 18.0293C59.4681 18.0293 60.1029 18.153 60.6562 18.4004C61.2096 18.6413 61.6751 18.9831 62.0527 19.4258C62.4303 19.8685 62.7168 20.3893 62.9121 20.9883C63.1074 21.5872 63.2051 22.2415 63.2051 22.9512V23.1562C63.2051 23.8789 63.0944 24.5495 62.873 25.168C62.6582 25.7799 62.3392 26.3138 61.916 26.7695C61.4928 27.2253 60.972 27.5801 60.3535 27.834C59.735 28.0814 59.0286 28.2051 58.2344 28.2051C57.4336 28.2051 56.7207 28.0716 56.0957 27.8047C55.4772 27.5312 54.9531 27.1504 54.5234 26.6621C54.1003 26.1673 53.778 25.5911 53.5566 24.9336C53.3418 24.2695 53.2344 23.5469 53.2344 22.7656V22.5508C53.2344 22.4401 53.2832 22.3327 53.3809 22.2285C53.485 22.1178 53.6055 21.9941 53.7422 21.8574C53.8854 21.7207 54.0124 21.5482 54.123 21.3398C54.5137 20.6172 54.9401 20.0117 55.4023 19.5234C55.8646 19.0286 56.3691 18.6576 56.916 18.4102C57.4694 18.1562 58.0814 18.0293 58.752 18.0293ZM58.2148 20.2266C57.6875 20.2266 57.2643 20.3535 56.9453 20.6074C56.6263 20.8548 56.3952 21.1868 56.252 21.6035C56.1152 22.0137 56.0469 22.4629 56.0469 22.9512V23.1562C56.0469 23.5534 56.0859 23.9245 56.1641 24.2695C56.2422 24.6081 56.3659 24.9108 56.5352 25.1777C56.7044 25.4382 56.929 25.6432 57.209 25.793C57.4889 25.9362 57.8307 26.0078 58.2344 26.0078C58.625 26.0078 58.957 25.9362 59.2305 25.793C59.5104 25.6432 59.735 25.4382 59.9043 25.1777C60.0736 24.9108 60.1973 24.6081 60.2754 24.2695C60.3535 23.9245 60.3926 23.5534 60.3926 23.1562V22.9512C60.3926 22.5801 60.3535 22.2318 60.2754 21.9062C60.1973 21.5742 60.0736 21.2845 59.9043 21.0371C59.735 20.7832 59.5104 20.5846 59.2305 20.4414C58.9505 20.2982 58.612 20.2266 58.2148 20.2266ZM67.541 24.0742L71.0859 17.4336H73.8984V28H71.0859V21.3496L67.541 28H64.7285V17.4336H67.541V24.0742ZM83.3027 21.7012V23.8887H77.9316V21.7012H83.3027ZM78.8691 17.4336V28H76.0566V17.4336H78.8691ZM85.207 17.4336V28H82.3848V17.4336H85.207ZM92.2578 28.1953C91.4375 28.1953 90.7018 28.0651 90.0508 27.8047C89.3997 27.5378 88.8464 27.1699 88.3906 26.7012C87.9414 26.2324 87.5964 25.6888 87.3555 25.0703C87.1146 24.4453 86.9941 23.7812 86.9941 23.0781V22.6875C86.9941 21.8867 87.1081 21.1543 87.3359 20.4902C87.5638 19.8262 87.8893 19.25 88.3125 18.7617C88.7422 18.2734 89.263 17.8991 89.875 17.6387C90.487 17.3717 91.1771 17.2383 91.9453 17.2383C92.694 17.2383 93.3581 17.362 93.9375 17.6094C94.5169 17.8568 95.002 18.2083 95.3926 18.6641C95.7897 19.1198 96.0892 19.6667 96.291 20.3047C96.4928 20.9362 96.5938 21.6393 96.5938 22.4141V23.5859H88.1953V21.7109H93.8301V21.4961C93.8301 21.1055 93.7585 20.7572 93.6152 20.4512C93.4785 20.1387 93.2702 19.8913 92.9902 19.709C92.7103 19.5267 92.3522 19.4355 91.916 19.4355C91.5449 19.4355 91.2259 19.5169 90.959 19.6797C90.6921 19.8424 90.474 20.0703 90.3047 20.3633C90.1419 20.6562 90.0182 21.0013 89.9336 21.3984C89.8555 21.7891 89.8164 22.2188 89.8164 22.6875V23.0781C89.8164 23.5013 89.875 23.8919 89.9922 24.25C90.1159 24.6081 90.2884 24.9173 90.5098 25.1777C90.7376 25.4382 91.0111 25.64 91.3301 25.7832C91.6556 25.9264 92.0234 25.998 92.4336 25.998C92.9414 25.998 93.4134 25.9004 93.8496 25.7051C94.2923 25.5033 94.6732 25.2005 94.9922 24.7969L96.3594 26.2812C96.138 26.6003 95.8353 26.9062 95.4512 27.1992C95.0736 27.4922 94.6178 27.7331 94.084 27.9219C93.5501 28.1042 92.9414 28.1953 92.2578 28.1953ZM103.459 17.4336V28H100.637V17.4336H103.459ZM106.857 17.4336V19.6113H97.2871V17.4336H106.857Z" fill="white"/>
<path d="M139.022 32.6667C139.022 28.1517 134.53 24.5 129 24.5C123.47 24.5 118.978 28.1517 118.978 32.6667M129 21C130.547 21 132.031 20.3854 133.125 19.2915C134.219 18.1975 134.833 16.7138 134.833 15.1667C134.833 13.6196 134.219 12.1358 133.125 11.0419C132.031 9.94792 130.547 9.33334 129 9.33334C127.453 9.33334 125.969 9.94792 124.875 11.0419C123.781 12.1358 123.167 13.6196 123.167 15.1667C123.167 16.7138 123.781 18.1975 124.875 19.2915C125.969 20.3854 127.453 21 129 21V21Z" stroke="white" stroke-width="1.5" stroke-linecap="round" stroke-linejoin="round"/>
</svg>
