<svg width="74" height="59" viewBox="0 0 74 59" fill="none" xmlns="http://www.w3.org/2000/svg">
<path d="M22.2371 45.301C16.1485 45.1852 11.0074 41.5107 8.9194 36.3806C9.5863 36.4657 10.2619 36.5116 10.9602 36.5116C12.3642 36.5116 13.7443 36.3204 15.0351 35.9914L15.0066 35.016C8.55982 33.768 3.6751 28.4292 3.37085 21.9619C5.27815 22.851 7.40306 23.3848 9.64451 23.4471L11.4344 23.4968L9.9292 22.527C6.0381 20.0199 3.47499 15.7647 3.47499 10.921C3.47499 8.57713 4.05852 6.40815 5.09806 4.50021C12.5905 13.0272 23.5994 18.6432 35.9822 19.2L36.6454 19.2298L36.491 18.5842C36.2495 17.5747 36.1105 16.5118 36.1105 15.4058C36.1105 7.72274 42.6014 1.45532 50.6527 1.45532C54.8491 1.45532 58.6261 3.16845 61.2658 5.88549L61.4544 6.07961L61.72 6.02784C64.7341 5.44045 67.5945 4.46119 70.2311 3.13144C69.0174 5.84413 66.941 8.1166 64.3243 9.62623L64.6321 10.556C67.2144 10.2549 69.6864 9.65092 72.0273 8.78713C70.2055 11.1349 68.0146 13.2169 65.5407 14.9118L65.3025 15.075L65.3248 15.3629C65.3712 15.9619 65.3714 16.562 65.3714 17.1733C65.3714 36.0152 50.442 57.7768 23.1008 57.7768C15.4605 57.7768 8.33555 55.8288 2.14638 52.4458C2.62559 52.4651 3.10414 52.4739 3.58236 52.4739C10.7014 52.4739 17.3113 50.1324 22.5285 46.2002L23.6851 45.3286L22.2371 45.301Z" fill="#DB9C6F" stroke="#DB9C6F"/>
</svg>
